<?xml version="1.0" encoding="utf-8"?>
<!-- Generator: Adobe Illustrator 24.0.1, SVG Export Plug-In . SVG Version: 6.00 Build 0)  -->
<svg version="1.1" xmlns="http://www.w3.org/2000/svg" xmlns:xlink="http://www.w3.org/1999/xlink" x="0px" y="0px"
	 viewBox="0 0 926.7 926.7" style="enable-background:new 0 0 926.7 926.7;" xml:space="preserve">
<style type="text/css">
	.st0{fill:#E23340;}
	.st1{fill:#FFFFFF;}
	.st2{fill:#3EC13E;}
</style>
<g id="background">
</g>
<g id="objects">
	<circle class="st0" cx="463.3" cy="463.3" r="463.3"/>
	<path class="st1" d="M548.4,455.8C590.8,516,629.9,582.6,656,650.6l-82.2,74.4c0,0-43.5-71.8-110.5-161.9
		c-67,90.1-110.5,161.9-110.5,161.9l-82.2-74.4c26.1-68,65.3-134.6,107.7-194.8c-49.1-57.7-103.9-114.7-160.1-159.5l106.1-94.6
		c0,0,64.4,57.4,139,144.9c74.6-87.5,139-144.9,139-144.9l106.1,94.6C652.3,341.1,597.5,398.1,548.4,455.8z"/>
</g>
</svg>
