<?xml version="1.0" encoding="utf-8"?>
<!-- Generator: Adobe Illustrator 24.0.1, SVG Export Plug-In . SVG Version: 6.00 Build 0)  -->
<svg version="1.1" id="Calque_1" xmlns="http://www.w3.org/2000/svg" xmlns:xlink="http://www.w3.org/1999/xlink" x="0px" y="0px"
	 viewBox="0 0 1566 855" style="enable-background:new 0 0 1566 855;" xml:space="preserve">
<style type="text/css">
	.st0{fill:#AFD65B;}
	.st1{fill:#4C9368;}
	.st2{fill:#FF812C;}
	.st3{fill:#E30613;}
	.st4{fill:#1B1C1E;}
</style>
<g>
	<path class="st0" d="M478.2,61.4C571,22.2,669.3,1.5,770.7,0v366.2c-102.7,2.9-199,42.9-273.7,113.4l-259-259
		C307.9,152.8,388.7,99.3,478.2,61.4z"/>
	<path class="st1" d="M366.2,770.7H0C1.5,669.3,22.2,571,61.4,478.2C99.3,388.7,152.8,308,220.6,238l259,259
		C409.1,571.7,369.2,668,366.2,770.7z"/>
	<path class="st2" d="M795.2,0C896.6,1.5,995,22.2,1087.8,61.4c89.5,37.9,170.2,91.4,240.2,159.2l-259,259
		c-74.7-70.5-171.1-110.4-273.7-113.4L795.2,0L795.2,0z"/>
	<path class="st3" d="M1199.7,770.7c-2.9-102.7-42.9-199-113.4-273.7l259-259c67.8,69.9,121.4,150.7,159.2,240.2
		c39.3,92.8,59.9,191.2,61.4,292.5H1199.7z"/>
</g>
<path class="st4" d="M854.1,788.8l258.2-154.1c7.2-4.3,2-15.3-5.9-12.5l-283,101.5c-20.5-14.1-47.7-17.3-71.8-5.9
	c-36,17-51.4,59.9-34.4,95.9s59.9,51.4,95.9,34.4C837.2,836.6,852.1,813.6,854.1,788.8z M752.2,797.1c-7.9-16.6-0.7-36.5,15.9-44.3
	c16.6-7.9,36.5-0.7,44.3,15.9c7.9,16.6,0.7,36.5-15.9,44.3C779.9,820.8,760.1,813.7,752.2,797.1z"/>
</svg>
