<?xml version="1.0" encoding="utf-8"?>
<!-- Generator: Adobe Illustrator 24.0.1, SVG Export Plug-In . SVG Version: 6.00 Build 0)  -->
<svg version="1.1" id="Calque_1" xmlns="http://www.w3.org/2000/svg" xmlns:xlink="http://www.w3.org/1999/xlink" x="0px" y="0px"
	 viewBox="0 0 425.4 676" style="enable-background:new 0 0 425.4 676;" xml:space="preserve">
<style type="text/css">
	.st0{fill:#1D1D1B;}
	.st1{clip-path:url(#SVGID_3_);}
	.st2{clip-path:url(#SVGID_6_);}
	.st3{clip-path:url(#SVGID_8_);}
	.st4{clip-path:url(#SVGID_12_);}
	.st5{clip-path:url(#SVGID_14_);}
	.st6{clip-path:url(#SVGID_18_);}
	.st7{clip-path:url(#SVGID_20_);}
	.st8{clip-path:url(#SVGID_22_);}
	.st9{clip-path:url(#SVGID_26_);}
	.st10{clip-path:url(#SVGID_28_);}
	.st11{clip-path:url(#SVGID_30_);}
	.st12{fill-rule:evenodd;clip-rule:evenodd;}
	.st13{fill:#127EA7;}
	.st14{fill:#FFFFFF;}
</style>
<g>
	<rect x="0.4" y="0.2" class="st0" width="425" height="230.2"/>
	<g>
		<g>
			<defs>
				<polygon id="SVGID_1_" points="5.5,246.9 5.9,246.9 5.5,247.3 				"/>
			</defs>
			<defs>
				<polygon id="SVGID_2_" points="4.7,246.1 4.3,246.1 4.7,245.7 				"/>
			</defs>
			<clipPath id="SVGID_3_">
				<use xlink:href="#SVGID_1_"  style="overflow:visible;"/>
			</clipPath>
			<clipPath id="SVGID_4_" class="st1">
				<use xlink:href="#SVGID_2_"  style="overflow:visible;"/>
			</clipPath>
		</g>
	</g>
	<g>
		<circle cx="151.4" cy="257.3" r="6.2"/>
		<circle cx="176" cy="257.3" r="6.2"/>
		<circle cx="188.3" cy="257.3" r="6.2"/>
		<circle cx="212.9" cy="257.3" r="6.2"/>
		<circle cx="262.1" cy="257.3" r="6.2"/>
		<circle cx="274.4" cy="257.3" r="6.2"/>
		<circle cx="286.7" cy="257.3" r="6.2"/>
		<circle cx="299" cy="257.3" r="6.2"/>
		<circle cx="311.3" cy="257.3" r="6.2"/>
		<circle cx="16.1" cy="380.3" r="6.2"/>
		<circle cx="16.1" cy="417.2" r="6.2"/>
		<circle cx="16.1" cy="441.8" r="6.2"/>
		<circle cx="16.1" cy="503.3" r="6.2"/>
		<circle cx="16.1" cy="527.9" r="6.2"/>
		<circle cx="28.4" cy="355.7" r="6.2"/>
		<circle cx="28.4" cy="392.6" r="6.2"/>
		<circle cx="28.4" cy="404.9" r="6.2"/>
		<circle cx="28.4" cy="417.2" r="6.2"/>
		<circle cx="28.4" cy="429.5" r="6.2"/>
		<circle cx="28.4" cy="466.4" r="6.2"/>
		<circle cx="28.4" cy="491" r="6.2"/>
		<circle cx="28.4" cy="503.3" r="6.2"/>
		<circle cx="28.4" cy="515.6" r="6.2"/>
		<circle cx="28.4" cy="527.9" r="6.2"/>
		<circle cx="40.7" cy="392.6" r="6.2"/>
		<circle cx="40.7" cy="404.9" r="6.2"/>
		<circle cx="40.7" cy="429.5" r="6.2"/>
		<circle cx="40.7" cy="441.8" r="6.2"/>
		<circle cx="40.7" cy="454.1" r="6.2"/>
		<circle cx="40.7" cy="466.4" r="6.2"/>
		<circle cx="40.7" cy="478.7" r="6.2"/>
		<circle cx="40.7" cy="491" r="6.2"/>
		<circle cx="40.7" cy="503.3" r="6.2"/>
		<circle cx="40.7" cy="527.9" r="6.2"/>
		<circle cx="40.7" cy="552.5" r="6.2"/>
		<circle cx="53" cy="355.7" r="6.2"/>
		<circle cx="53" cy="368" r="6.2"/>
		<circle cx="53" cy="392.6" r="6.2"/>
		<circle cx="53" cy="429.5" r="6.2"/>
		<circle cx="53" cy="441.8" r="6.2"/>
		<circle cx="53" cy="540.2" r="6.2"/>
		<circle cx="53" cy="552.5" r="6.2"/>
		<circle cx="65.3" cy="355.7" r="6.2"/>
		<circle cx="65.3" cy="368" r="6.2"/>
		<circle cx="65.3" cy="380.3" r="6.2"/>
		<circle cx="65.3" cy="404.9" r="6.2"/>
		<circle cx="65.3" cy="417.2" r="6.2"/>
		<circle cx="65.3" cy="441.8" r="6.2"/>
		<circle cx="65.3" cy="454.1" r="6.2"/>
		<circle cx="65.3" cy="478.7" r="6.2"/>
		<circle cx="65.3" cy="503.3" r="6.2"/>
		<circle cx="65.3" cy="540.2" r="6.2"/>
		<circle cx="65.3" cy="552.5" r="6.2"/>
		<circle cx="77.6" cy="368" r="6.2"/>
		<circle cx="77.6" cy="380.3" r="6.2"/>
		<circle cx="77.6" cy="392.6" r="6.2"/>
		<circle cx="77.6" cy="417.2" r="6.2"/>
		<circle cx="77.6" cy="429.5" r="6.2"/>
		<circle cx="77.6" cy="441.8" r="6.2"/>
		<circle cx="77.6" cy="478.7" r="6.2"/>
		<circle cx="77.6" cy="503.3" r="6.2"/>
		<circle cx="77.6" cy="515.6" r="6.2"/>
		<circle cx="77.6" cy="540.2" r="6.2"/>
		<circle cx="77.6" cy="552.5" r="6.2"/>
		<circle cx="89.9" cy="355.7" r="6.2"/>
		<circle cx="89.9" cy="380.3" r="6.2"/>
		<circle cx="89.9" cy="404.9" r="6.2"/>
		<circle cx="89.9" cy="429.5" r="6.2"/>
		<circle cx="89.9" cy="454.1" r="6.2"/>
		<circle cx="89.9" cy="478.7" r="6.2"/>
		<circle cx="89.9" cy="503.3" r="6.2"/>
		<circle cx="89.9" cy="527.9" r="6.2"/>
		<circle cx="89.9" cy="552.5" r="6.2"/>
		<circle cx="102.2" cy="355.7" r="6.2"/>
		<circle cx="102.2" cy="478.7" r="6.2"/>
		<circle cx="102.2" cy="491" r="6.2"/>
		<circle cx="102.2" cy="503.3" r="6.2"/>
		<circle cx="102.2" cy="552.5" r="6.2"/>
		<circle cx="114.5" cy="269.6" r="6.2"/>
		<circle cx="114.5" cy="294.2" r="6.2"/>
		<circle cx="114.5" cy="306.5" r="6.2"/>
		<circle cx="114.5" cy="318.8" r="6.2"/>
		<circle cx="114.5" cy="331.1" r="6.2"/>
		<circle cx="114.5" cy="355.7" r="6.2"/>
		<circle cx="114.5" cy="380.3" r="6.2"/>
		<circle cx="114.5" cy="392.6" r="6.2"/>
		<circle cx="114.5" cy="417.2" r="6.2"/>
		<circle cx="114.5" cy="429.5" r="6.2"/>
		<circle cx="114.5" cy="454.1" r="6.2"/>
		<circle cx="114.5" cy="466.4" r="6.2"/>
		<circle cx="114.5" cy="478.7" r="6.2"/>
		<circle cx="114.5" cy="491" r="6.2"/>
		<circle cx="114.5" cy="552.5" r="6.2"/>
		<circle cx="114.5" cy="564.8" r="6.2"/>
		<circle cx="114.5" cy="577.1" r="6.2"/>
		<circle cx="114.5" cy="601.7" r="6.2"/>
		<circle cx="114.5" cy="614" r="6.2"/>
		<circle cx="114.5" cy="638.6" r="6.2"/>
		<circle cx="126.8" cy="269.6" r="6.2"/>
		<circle cx="126.8" cy="306.5" r="6.2"/>
		<circle cx="126.8" cy="318.8" r="6.2"/>
		<circle cx="126.8" cy="380.3" r="6.2"/>
		<circle cx="126.8" cy="404.9" r="6.2"/>
		<circle cx="126.8" cy="417.2" r="6.2"/>
		<circle cx="126.8" cy="441.8" r="6.2"/>
		<circle cx="126.8" cy="454.1" r="6.2"/>
		<circle cx="126.8" cy="491" r="6.2"/>
		<circle cx="126.8" cy="527.9" r="6.2"/>
		<circle cx="126.8" cy="540.2" r="6.2"/>
		<circle cx="126.8" cy="601.7" r="6.2"/>
		<circle cx="126.8" cy="614" r="6.2"/>
		<circle cx="126.8" cy="626.3" r="6.2"/>
		<circle cx="126.8" cy="638.6" r="6.2"/>
		<circle cx="139.1" cy="281.9" r="6.2"/>
		<circle cx="139.1" cy="306.5" r="6.2"/>
		<circle cx="139.1" cy="331.1" r="6.2"/>
		<circle cx="139.1" cy="343.4" r="6.2"/>
		<circle cx="139.1" cy="380.3" r="6.2"/>
		<circle cx="139.1" cy="392.6" r="6.2"/>
		<circle cx="139.1" cy="429.5" r="6.2"/>
		<circle cx="139.1" cy="441.8" r="6.2"/>
		<circle cx="139.1" cy="466.4" r="6.2"/>
		<circle cx="139.1" cy="478.7" r="6.2"/>
		<circle cx="139.1" cy="515.6" r="6.2"/>
		<circle cx="139.1" cy="540.2" r="6.2"/>
		<circle cx="139.1" cy="552.5" r="6.2"/>
		<circle cx="139.1" cy="564.8" r="6.2"/>
		<circle cx="139.1" cy="577.1" r="6.2"/>
		<circle cx="139.1" cy="601.7" r="6.2"/>
		<circle cx="139.1" cy="614" r="6.2"/>
		<circle cx="139.1" cy="626.3" r="6.2"/>
		<circle cx="139.1" cy="650.9" r="6.2"/>
		<circle cx="151.4" cy="269.6" r="6.2"/>
		<circle cx="151.4" cy="281.9" r="6.2"/>
		<circle cx="151.4" cy="355.7" r="6.2"/>
		<circle cx="151.4" cy="368" r="6.2"/>
		<circle cx="151.4" cy="380.3" r="6.2"/>
		<circle cx="151.4" cy="392.6" r="6.2"/>
		<circle cx="151.4" cy="404.9" r="6.2"/>
		<circle cx="151.4" cy="417.2" r="6.2"/>
		<circle cx="151.4" cy="466.4" r="6.2"/>
		<circle cx="151.4" cy="540.2" r="6.2"/>
		<circle cx="151.4" cy="564.8" r="6.2"/>
		<circle cx="151.4" cy="577.1" r="6.2"/>
		<circle cx="151.4" cy="589.4" r="6.2"/>
		<circle cx="151.4" cy="626.3" r="6.2"/>
		<circle cx="151.4" cy="638.6" r="6.2"/>
		<circle cx="151.4" cy="650.9" r="6.2"/>
		<circle cx="163.7" cy="294.2" r="6.2"/>
		<circle cx="163.7" cy="306.5" r="6.2"/>
		<circle cx="163.7" cy="331.1" r="6.2"/>
		<circle cx="163.7" cy="343.4" r="6.2"/>
		<circle cx="163.7" cy="368" r="6.2"/>
		<circle cx="163.7" cy="515.6" r="6.2"/>
		<circle cx="163.7" cy="527.9" r="6.2"/>
		<circle cx="163.7" cy="564.8" r="6.2"/>
		<circle cx="163.7" cy="577.1" r="6.2"/>
		<circle cx="163.7" cy="638.6" r="6.2"/>
		<circle cx="163.7" cy="650.9" r="6.2"/>
		<circle cx="176" cy="269.6" r="6.2"/>
		<circle cx="176" cy="281.9" r="6.2"/>
		<circle cx="176" cy="318.8" r="6.2"/>
		<circle cx="176" cy="355.7" r="6.2"/>
		<circle cx="176" cy="380.3" r="6.2"/>
		<circle cx="176" cy="392.6" r="6.2"/>
		<circle cx="176" cy="515.6" r="6.2"/>
		<circle cx="176" cy="527.9" r="6.2"/>
		<circle cx="176" cy="540.2" r="6.2"/>
		<circle cx="176" cy="552.5" r="6.2"/>
		<circle cx="176" cy="626.3" r="6.2"/>
		<circle cx="188.3" cy="281.9" r="6.2"/>
		<circle cx="188.3" cy="294.2" r="6.2"/>
		<circle cx="188.3" cy="306.5" r="6.2"/>
		<circle cx="188.3" cy="331.1" r="6.2"/>
		<circle cx="188.3" cy="343.4" r="6.2"/>
		<circle cx="188.3" cy="368" r="6.2"/>
		<circle cx="188.3" cy="380.3" r="6.2"/>
		<circle cx="188.3" cy="527.9" r="6.2"/>
		<circle cx="188.3" cy="552.5" r="6.2"/>
		<circle cx="188.3" cy="577.1" r="6.2"/>
		<circle cx="188.3" cy="589.4" r="6.2"/>
		<circle cx="200.6" cy="269.6" r="6.2"/>
		<circle cx="200.6" cy="294.2" r="6.2"/>
		<circle cx="200.6" cy="318.8" r="6.2"/>
		<circle cx="200.6" cy="343.4" r="6.2"/>
		<circle cx="200.6" cy="355.7" r="6.2"/>
		<circle cx="200.6" cy="380.3" r="6.2"/>
		<circle cx="200.6" cy="392.6" r="6.2"/>
		<circle cx="200.6" cy="564.8" r="6.2"/>
		<circle cx="200.6" cy="601.7" r="6.2"/>
		<circle cx="200.6" cy="626.3" r="6.2"/>
		<circle cx="200.6" cy="650.9" r="6.2"/>
		<circle cx="212.9" cy="269.6" r="6.2"/>
		<circle cx="212.9" cy="281.9" r="6.2"/>
		<circle cx="212.9" cy="294.2" r="6.2"/>
		<circle cx="212.9" cy="318.8" r="6.2"/>
		<circle cx="212.9" cy="331.1" r="6.2"/>
		<circle cx="212.9" cy="343.4" r="6.2"/>
		<circle cx="212.9" cy="380.3" r="6.2"/>
		<circle cx="212.9" cy="392.6" r="6.2"/>
		<circle cx="212.9" cy="540.2" r="6.2"/>
		<circle cx="212.9" cy="552.5" r="6.2"/>
		<circle cx="212.9" cy="564.8" r="6.2"/>
		<circle cx="212.9" cy="577.1" r="6.2"/>
		<circle cx="212.9" cy="589.4" r="6.2"/>
		<circle cx="212.9" cy="601.7" r="6.2"/>
		<circle cx="225.2" cy="269.6" r="6.2"/>
		<circle cx="225.2" cy="294.2" r="6.2"/>
		<circle cx="225.2" cy="306.5" r="6.2"/>
		<circle cx="225.2" cy="343.4" r="6.2"/>
		<circle cx="225.2" cy="355.7" r="6.2"/>
		<circle cx="225.2" cy="368" r="6.2"/>
		<circle cx="225.2" cy="392.6" r="6.2"/>
		<circle cx="225.2" cy="515.6" r="6.2"/>
		<circle cx="225.2" cy="527.9" r="6.2"/>
		<circle cx="225.2" cy="564.8" r="6.2"/>
		<circle cx="225.2" cy="577.1" r="6.2"/>
		<circle cx="225.2" cy="601.7" r="6.2"/>
		<circle cx="225.2" cy="626.3" r="6.2"/>
		<circle cx="225.2" cy="638.6" r="6.2"/>
		<circle cx="225.2" cy="650.9" r="6.2"/>
		<circle cx="237.5" cy="281.9" r="6.2"/>
		<circle cx="237.5" cy="306.5" r="6.2"/>
		<circle cx="237.5" cy="318.8" r="6.2"/>
		<circle cx="237.5" cy="331.1" r="6.2"/>
		<circle cx="237.5" cy="343.4" r="6.2"/>
		<circle cx="237.5" cy="355.7" r="6.2"/>
		<circle cx="237.5" cy="540.2" r="6.2"/>
		<circle cx="237.5" cy="552.5" r="6.2"/>
		<circle cx="237.5" cy="564.8" r="6.2"/>
		<circle cx="237.5" cy="589.4" r="6.2"/>
		<circle cx="237.5" cy="614" r="6.2"/>
		<circle cx="237.5" cy="626.3" r="6.2"/>
		<circle cx="237.5" cy="638.6" r="6.2"/>
		<circle cx="237.5" cy="650.9" r="6.2"/>
		<circle cx="249.8" cy="269.6" r="6.2"/>
		<circle cx="249.8" cy="318.8" r="6.2"/>
		<circle cx="249.8" cy="368" r="6.2"/>
		<circle cx="249.8" cy="380.3" r="6.2"/>
		<circle cx="249.8" cy="392.6" r="6.2"/>
		<circle cx="249.8" cy="515.6" r="6.2"/>
		<circle cx="249.8" cy="552.5" r="6.2"/>
		<circle cx="249.8" cy="564.8" r="6.2"/>
		<circle cx="249.8" cy="601.7" r="6.2"/>
		<circle cx="249.8" cy="614" r="6.2"/>
		<circle cx="249.8" cy="626.3" r="6.2"/>
		<circle cx="249.8" cy="650.9" r="6.2"/>
		<circle cx="262.1" cy="294.2" r="6.2"/>
		<circle cx="262.1" cy="306.5" r="6.2"/>
		<circle cx="262.1" cy="318.8" r="6.2"/>
		<circle cx="262.1" cy="331.1" r="6.2"/>
		<circle cx="262.1" cy="343.4" r="6.2"/>
		<circle cx="262.1" cy="355.7" r="6.2"/>
		<circle cx="262.1" cy="515.6" r="6.2"/>
		<circle cx="262.1" cy="614" r="6.2"/>
		<circle cx="262.1" cy="638.6" r="6.2"/>
		<circle cx="274.4" cy="281.9" r="6.2"/>
		<circle cx="274.4" cy="318.8" r="6.2"/>
		<circle cx="274.4" cy="343.4" r="6.2"/>
		<circle cx="274.4" cy="380.3" r="6.2"/>
		<circle cx="274.4" cy="404.9" r="6.2"/>
		<circle cx="274.4" cy="441.8" r="6.2"/>
		<circle cx="274.4" cy="454.1" r="6.2"/>
		<circle cx="274.4" cy="478.7" r="6.2"/>
		<circle cx="274.4" cy="503.3" r="6.2"/>
		<circle cx="274.4" cy="515.6" r="6.2"/>
		<circle cx="274.4" cy="527.9" r="6.2"/>
		<circle cx="274.4" cy="540.2" r="6.2"/>
		<circle cx="274.4" cy="552.5" r="6.2"/>
		<circle cx="274.4" cy="601.7" r="6.2"/>
		<circle cx="274.4" cy="614" r="6.2"/>
		<circle cx="274.4" cy="626.3" r="6.2"/>
		<circle cx="286.7" cy="294.2" r="6.2"/>
		<circle cx="286.7" cy="306.5" r="6.2"/>
		<circle cx="286.7" cy="318.8" r="6.2"/>
		<circle cx="286.7" cy="331.1" r="6.2"/>
		<circle cx="286.7" cy="355.7" r="6.2"/>
		<circle cx="286.7" cy="368" r="6.2"/>
		<circle cx="286.7" cy="392.6" r="6.2"/>
		<circle cx="286.7" cy="404.9" r="6.2"/>
		<circle cx="286.7" cy="417.2" r="6.2"/>
		<circle cx="286.7" cy="429.5" r="6.2"/>
		<circle cx="286.7" cy="466.4" r="6.2"/>
		<circle cx="286.7" cy="478.7" r="6.2"/>
		<circle cx="286.7" cy="527.9" r="6.2"/>
		<circle cx="286.7" cy="540.2" r="6.2"/>
		<circle cx="286.7" cy="564.8" r="6.2"/>
		<circle cx="286.7" cy="577.1" r="6.2"/>
		<circle cx="286.7" cy="626.3" r="6.2"/>
		<circle cx="286.7" cy="638.6" r="6.2"/>
		<circle cx="286.7" cy="650.9" r="6.2"/>
		<circle cx="299" cy="281.9" r="6.2"/>
		<circle cx="299" cy="343.4" r="6.2"/>
		<circle cx="299" cy="355.7" r="6.2"/>
		<circle cx="299" cy="392.6" r="6.2"/>
		<circle cx="299" cy="404.9" r="6.2"/>
		<circle cx="299" cy="417.2" r="6.2"/>
		<circle cx="299" cy="429.5" r="6.2"/>
		<circle cx="299" cy="441.8" r="6.2"/>
		<circle cx="299" cy="454.1" r="6.2"/>
		<circle cx="299" cy="478.7" r="6.2"/>
		<circle cx="299" cy="527.9" r="6.2"/>
		<circle cx="299" cy="540.2" r="6.2"/>
		<circle cx="299" cy="614" r="6.2"/>
		<circle cx="299" cy="626.3" r="6.2"/>
		<circle cx="311.3" cy="269.6" r="6.2"/>
		<circle cx="311.3" cy="281.9" r="6.2"/>
		<circle cx="311.3" cy="294.2" r="6.2"/>
		<circle cx="311.3" cy="318.8" r="6.2"/>
		<circle cx="311.3" cy="331.1" r="6.2"/>
		<circle cx="311.3" cy="343.4" r="6.2"/>
		<circle cx="311.3" cy="380.3" r="6.2"/>
		<circle cx="311.3" cy="429.5" r="6.2"/>
		<circle cx="311.3" cy="454.1" r="6.2"/>
		<circle cx="311.3" cy="466.4" r="6.2"/>
		<circle cx="311.3" cy="478.7" r="6.2"/>
		<circle cx="311.3" cy="491" r="6.2"/>
		<circle cx="311.3" cy="503.3" r="6.2"/>
		<circle cx="311.3" cy="540.2" r="6.2"/>
		<circle cx="311.3" cy="552.5" r="6.2"/>
		<circle cx="311.3" cy="564.8" r="6.2"/>
		<circle cx="311.3" cy="577.1" r="6.2"/>
		<circle cx="311.3" cy="589.4" r="6.2"/>
		<circle cx="311.3" cy="601.7" r="6.2"/>
		<circle cx="311.3" cy="650.9" r="6.2"/>
		<circle cx="323.6" cy="355.7" r="6.2"/>
		<circle cx="323.6" cy="392.6" r="6.2"/>
		<circle cx="323.6" cy="429.5" r="6.2"/>
		<circle cx="323.6" cy="454.1" r="6.2"/>
		<circle cx="323.6" cy="478.7" r="6.2"/>
		<circle cx="323.6" cy="503.3" r="6.2"/>
		<circle cx="323.6" cy="540.2" r="6.2"/>
		<circle cx="323.6" cy="552.5" r="6.2"/>
		<circle cx="323.6" cy="601.7" r="6.2"/>
		<circle cx="323.6" cy="626.3" r="6.2"/>
		<circle cx="335.9" cy="368" r="6.2"/>
		<circle cx="335.9" cy="380.3" r="6.2"/>
		<circle cx="335.9" cy="404.9" r="6.2"/>
		<circle cx="335.9" cy="429.5" r="6.2"/>
		<circle cx="335.9" cy="441.8" r="6.2"/>
		<circle cx="335.9" cy="454.1" r="6.2"/>
		<circle cx="335.9" cy="466.4" r="6.2"/>
		<circle cx="335.9" cy="491" r="6.2"/>
		<circle cx="335.9" cy="503.3" r="6.2"/>
		<circle cx="335.9" cy="515.6" r="6.2"/>
		<circle cx="335.9" cy="527.9" r="6.2"/>
		<circle cx="335.9" cy="540.2" r="6.2"/>
		<circle cx="335.9" cy="552.5" r="6.2"/>
		<circle cx="335.9" cy="577.1" r="6.2"/>
		<circle cx="335.9" cy="601.7" r="6.2"/>
		<circle cx="335.9" cy="626.3" r="6.2"/>
		<circle cx="335.9" cy="638.6" r="6.2"/>
		<circle cx="348.2" cy="355.7" r="6.2"/>
		<circle cx="348.2" cy="368" r="6.2"/>
		<circle cx="348.2" cy="380.3" r="6.2"/>
		<circle cx="348.2" cy="429.5" r="6.2"/>
		<circle cx="348.2" cy="441.8" r="6.2"/>
		<circle cx="348.2" cy="478.7" r="6.2"/>
		<circle cx="348.2" cy="491" r="6.2"/>
		<circle cx="348.2" cy="540.2" r="6.2"/>
		<circle cx="348.2" cy="552.5" r="6.2"/>
		<circle cx="348.2" cy="601.7" r="6.2"/>
		<circle cx="348.2" cy="614" r="6.2"/>
		<circle cx="348.2" cy="626.3" r="6.2"/>
		<circle cx="348.2" cy="650.9" r="6.2"/>
		<circle cx="360.5" cy="355.7" r="6.2"/>
		<circle cx="360.5" cy="368" r="6.2"/>
		<circle cx="360.5" cy="380.3" r="6.2"/>
		<circle cx="360.5" cy="404.9" r="6.2"/>
		<circle cx="360.5" cy="417.2" r="6.2"/>
		<circle cx="360.5" cy="441.8" r="6.2"/>
		<circle cx="360.5" cy="454.1" r="6.2"/>
		<circle cx="360.5" cy="491" r="6.2"/>
		<circle cx="360.5" cy="503.3" r="6.2"/>
		<circle cx="360.5" cy="515.6" r="6.2"/>
		<circle cx="360.5" cy="540.2" r="6.2"/>
		<circle cx="360.5" cy="552.5" r="6.2"/>
		<circle cx="360.5" cy="564.8" r="6.2"/>
		<circle cx="360.5" cy="577.1" r="6.2"/>
		<circle cx="360.5" cy="589.4" r="6.2"/>
		<circle cx="360.5" cy="601.7" r="6.2"/>
		<circle cx="360.5" cy="650.9" r="6.2"/>
		<circle cx="372.8" cy="355.7" r="6.2"/>
		<circle cx="372.8" cy="368" r="6.2"/>
		<circle cx="372.8" cy="404.9" r="6.2"/>
		<circle cx="372.8" cy="417.2" r="6.2"/>
		<circle cx="372.8" cy="429.5" r="6.2"/>
		<circle cx="372.8" cy="441.8" r="6.2"/>
		<circle cx="372.8" cy="454.1" r="6.2"/>
		<circle cx="372.8" cy="478.7" r="6.2"/>
		<circle cx="372.8" cy="503.3" r="6.2"/>
		<circle cx="372.8" cy="515.6" r="6.2"/>
		<circle cx="372.8" cy="552.5" r="6.2"/>
		<circle cx="372.8" cy="564.8" r="6.2"/>
		<circle cx="372.8" cy="589.4" r="6.2"/>
		<circle cx="372.8" cy="614" r="6.2"/>
		<circle cx="372.8" cy="626.3" r="6.2"/>
		<circle cx="372.8" cy="650.9" r="6.2"/>
		<circle cx="385.1" cy="368" r="6.2"/>
		<circle cx="385.1" cy="380.3" r="6.2"/>
		<circle cx="385.1" cy="404.9" r="6.2"/>
		<circle cx="385.1" cy="441.8" r="6.2"/>
		<circle cx="385.1" cy="466.4" r="6.2"/>
		<circle cx="385.1" cy="503.3" r="6.2"/>
		<circle cx="385.1" cy="515.6" r="6.2"/>
		<circle cx="385.1" cy="527.9" r="6.2"/>
		<circle cx="385.1" cy="540.2" r="6.2"/>
		<circle cx="385.1" cy="552.5" r="6.2"/>
		<circle cx="385.1" cy="564.8" r="6.2"/>
		<circle cx="385.1" cy="589.4" r="6.2"/>
		<circle cx="385.1" cy="601.7" r="6.2"/>
		<circle cx="385.1" cy="626.3" r="6.2"/>
		<circle cx="385.1" cy="638.6" r="6.2"/>
		<circle cx="385.1" cy="650.9" r="6.2"/>
		<circle cx="397.4" cy="355.7" r="6.2"/>
		<circle cx="397.4" cy="392.6" r="6.2"/>
		<circle cx="397.4" cy="404.9" r="6.2"/>
		<circle cx="397.4" cy="417.2" r="6.2"/>
		<circle cx="397.4" cy="466.4" r="6.2"/>
		<circle cx="397.4" cy="527.9" r="6.2"/>
		<circle cx="397.4" cy="564.8" r="6.2"/>
		<circle cx="397.4" cy="577.1" r="6.2"/>
		<circle cx="397.4" cy="589.4" r="6.2"/>
		<circle cx="397.4" cy="601.7" r="6.2"/>
		<circle cx="397.4" cy="626.3" r="6.2"/>
		<circle cx="397.4" cy="638.6" r="6.2"/>
		<circle cx="397.4" cy="650.9" r="6.2"/>
		<circle cx="409.7" cy="368" r="6.2"/>
		<circle cx="409.7" cy="380.3" r="6.2"/>
		<circle cx="409.7" cy="392.6" r="6.2"/>
		<circle cx="409.7" cy="404.9" r="6.2"/>
		<circle cx="409.7" cy="429.5" r="6.2"/>
		<circle cx="409.7" cy="466.4" r="6.2"/>
		<circle cx="409.7" cy="478.7" r="6.2"/>
		<circle cx="409.7" cy="540.2" r="6.2"/>
		<circle cx="409.7" cy="552.5" r="6.2"/>
		<circle cx="409.7" cy="577.1" r="6.2"/>
		<circle cx="409.7" cy="589.4" r="6.2"/>
		<circle cx="409.7" cy="601.7" r="6.2"/>
		<circle cx="409.7" cy="614" r="6.2"/>
		<g>
			<g>
				<defs>
					<path id="SVGID_5_" d="M9.9,281.9v24.6c0,17,13.8,30.8,30.8,30.8h24.6c17,0,30.8-13.8,30.8-30.8v-24.6
						c0-17-13.8-30.8-30.8-30.8H40.7C23.7,251.1,9.9,264.9,9.9,281.9 M40.7,263.4h24.6c10.2,0,18.5,8.3,18.5,18.5v24.6
						c0,10.2-8.3,18.5-18.5,18.5H40.7c-10.2,0-18.5-8.3-18.5-18.5v-24.6C22.2,271.7,30.5,263.4,40.7,263.4"/>
				</defs>
				<clipPath id="SVGID_6_">
					<use xlink:href="#SVGID_5_"  style="overflow:visible;"/>
				</clipPath>
				<rect x="9.9" y="251.1" class="st2" width="86.1" height="86.1"/>
			</g>
			<g>
				<defs>
					<path id="SVGID_7_" d="M9.9,281.9v24.6c0,17,13.8,30.8,30.8,30.8h24.6c17,0,30.8-13.8,30.8-30.8v-24.6
						c0-17-13.8-30.8-30.8-30.8H40.7C23.7,251.1,9.9,264.9,9.9,281.9 M40.7,263.4h24.6c10.2,0,18.5,8.3,18.5,18.5v24.6
						c0,10.2-8.3,18.5-18.5,18.5H40.7c-10.2,0-18.5-8.3-18.5-18.5v-24.6C22.2,271.7,30.5,263.4,40.7,263.4"/>
				</defs>
				<clipPath id="SVGID_8_">
					<use xlink:href="#SVGID_7_"  style="overflow:visible;"/>
				</clipPath>
				<rect x="9.9" y="251.1" class="st3" width="86.1" height="86.1"/>
			</g>
			<g>
				<defs>
					<path id="SVGID_9_" d="M9.9,281.9v24.6c0,17,13.8,30.8,30.8,30.8h24.6c17,0,30.8-13.8,30.8-30.8v-24.6
						c0-17-13.8-30.8-30.8-30.8H40.7C23.7,251.1,9.9,264.9,9.9,281.9 M40.7,263.4h24.6c10.2,0,18.5,8.3,18.5,18.5v24.6
						c0,10.2-8.3,18.5-18.5,18.5H40.7c-10.2,0-18.5-8.3-18.5-18.5v-24.6C22.2,271.7,30.5,263.4,40.7,263.4"/>
				</defs>
				<clipPath id="SVGID_10_">
					<use xlink:href="#SVGID_9_"  style="overflow:visible;"/>
				</clipPath>
			</g>
		</g>
		<g>
			<g>
				<defs>
					<circle id="SVGID_11_" cx="53" cy="294.2" r="18.5"/>
				</defs>
				<clipPath id="SVGID_12_">
					<use xlink:href="#SVGID_11_"  style="overflow:visible;"/>
				</clipPath>
				<rect x="34.5" y="275.7" class="st4" width="36.9" height="36.9"/>
			</g>
			<g>
				<defs>
					<circle id="SVGID_13_" cx="53" cy="294.2" r="18.5"/>
				</defs>
				<clipPath id="SVGID_14_">
					<use xlink:href="#SVGID_13_"  style="overflow:visible;"/>
				</clipPath>
				<rect x="34.5" y="275.7" class="st5" width="36.9" height="36.9"/>
			</g>
			<g>
				<defs>
					<circle id="SVGID_15_" cx="53" cy="294.2" r="18.5"/>
				</defs>
				<clipPath id="SVGID_16_">
					<use xlink:href="#SVGID_15_"  style="overflow:visible;"/>
				</clipPath>
			</g>
		</g>
		<g>
			<defs>
				<path id="SVGID_17_" d="M385.1,251.1h-24.6c-17,0-30.8,13.8-30.8,30.8v24.6c0,17,13.8,30.8,30.8,30.8h24.6
					c17,0,30.8-13.8,30.8-30.8v-24.6C415.9,264.9,402.1,251.1,385.1,251.1 M403.6,281.9v24.6c0,10.2-8.3,18.5-18.5,18.5h-24.6
					c-10.2,0-18.5-8.3-18.5-18.5v-24.6c0-10.2,8.3-18.5,18.5-18.5h24.6C395.3,263.4,403.6,271.7,403.6,281.9"/>
			</defs>
			<clipPath id="SVGID_18_">
				<use xlink:href="#SVGID_17_"  style="overflow:visible;"/>
			</clipPath>
			<rect x="329.8" y="251.1" class="st6" width="86.1" height="86.1"/>
		</g>
		<g>
			<g>
				<defs>
					<circle id="SVGID_19_" cx="372.8" cy="294.2" r="18.5"/>
				</defs>
				<clipPath id="SVGID_20_">
					<use xlink:href="#SVGID_19_"  style="overflow:visible;"/>
				</clipPath>
				<rect x="354.4" y="275.7" class="st7" width="36.9" height="36.9"/>
			</g>
			<g>
				<defs>
					<circle id="SVGID_21_" cx="372.8" cy="294.2" r="18.5"/>
				</defs>
				<clipPath id="SVGID_22_">
					<use xlink:href="#SVGID_21_"  style="overflow:visible;"/>
				</clipPath>
				<rect x="354.4" y="275.7" class="st8" width="36.9" height="36.9"/>
			</g>
			<g>
				<defs>
					<circle id="SVGID_23_" cx="372.8" cy="294.2" r="18.5"/>
				</defs>
				<clipPath id="SVGID_24_">
					<use xlink:href="#SVGID_23_"  style="overflow:visible;"/>
				</clipPath>
			</g>
		</g>
		<g>
			<defs>
				<path id="SVGID_25_" d="M40.7,657.1h24.6c17,0,30.8-13.8,30.8-30.8v-24.6c0-17-13.8-30.8-30.8-30.8H40.7
					c-17,0-30.8,13.8-30.8,30.8v24.6C9.9,643.3,23.7,657.1,40.7,657.1 M22.2,626.3v-24.6c0-10.2,8.3-18.5,18.5-18.5h24.6
					c10.2,0,18.5,8.3,18.5,18.5l0,0v24.6c0,10.2-8.3,18.5-18.5,18.5l0,0H40.7C30.5,644.8,22.2,636.5,22.2,626.3"/>
			</defs>
			<clipPath id="SVGID_26_">
				<use xlink:href="#SVGID_25_"  style="overflow:visible;"/>
			</clipPath>
			<rect x="9.9" y="570.9" class="st9" width="86.1" height="86.1"/>
		</g>
		<g>
			<g>
				<defs>
					<circle id="SVGID_27_" cx="53" cy="614" r="18.5"/>
				</defs>
				<clipPath id="SVGID_28_">
					<use xlink:href="#SVGID_27_"  style="overflow:visible;"/>
				</clipPath>
				<rect x="34.5" y="595.5" class="st10" width="36.9" height="36.9"/>
			</g>
			<g>
				<defs>
					<circle id="SVGID_29_" cx="53" cy="614" r="18.5"/>
				</defs>
				<clipPath id="SVGID_30_">
					<use xlink:href="#SVGID_29_"  style="overflow:visible;"/>
				</clipPath>
				<rect x="34.5" y="595.5" class="st11" width="36.9" height="36.9"/>
			</g>
			<g>
				<defs>
					<circle id="SVGID_31_" cx="53" cy="614" r="18.5"/>
				</defs>
				<clipPath id="SVGID_32_">
					<use xlink:href="#SVGID_31_"  style="overflow:visible;"/>
				</clipPath>
			</g>
		</g>
		<g>
			<g>
				<g>
					<path d="M212.9,404.9c-27.2,0-49.2,22-49.2,49.2c0,27.2,22,49.2,49.2,49.2c27.2,0,49.2-22,49.2-49.2
						C262.1,426.9,240.1,404.9,212.9,404.9z M212.9,495.9c-23.1,0-41.8-18.7-41.8-41.8c0-23.1,18.7-41.8,41.8-41.8
						c23.1,0,41.8,18.7,41.8,41.8C254.7,477.2,236,495.9,212.9,495.9z"/>
				</g>
				<path d="M212.8,441.8h-24.2c-2.3,0-4.1-1.4-4.4-3.5c-0.4-2.4,1.5-4.6,4.1-4.7c0.7,0,1.3,0,2,0h46.9c2.5,0,4.3,1.7,4.4,4
					c0.1,2.4-1.8,4.2-4.4,4.2H212.8z"/>
				<path d="M212.9,458.2h-24.3c-2.3,0-4-1.4-4.4-3.4c-0.4-2.5,1.4-4.7,4-4.8h49c2.5,0,4.4,1.8,4.4,4.1c0,2.3-1.9,4.1-4.4,4.1
					C229.1,458.2,221,458.2,212.9,458.2z"/>
				<path d="M213,466.4h24.3c2.4,0,4.2,1.6,4.4,3.8c0.2,2.3-1.6,4.3-4.1,4.4h-48.9c-1.6,0-2.9-0.6-3.8-1.9c-0.8-1.3-0.9-2.7-0.1-4.1
					c0.8-1.4,2.1-2.1,3.8-2.2c5.1,0,10.2,0,15.4,0H213z"/>
			</g>
			<g>
				<path class="st12" d="M212.9,495.9c23.1,0,41.8-18.7,41.8-41.8c0-23.1-18.7-41.8-41.8-41.8c-23.1,0-41.8,18.7-41.8,41.8
					C171.1,477.2,189.8,495.9,212.9,495.9z M212.9,503.3c27.2,0,49.2-22,49.2-49.2c0-27.2-22-49.2-49.2-49.2s-49.2,22-49.2,49.2
					C163.7,481.3,185.7,503.3,212.9,503.3z"/>
				<path d="M212.8,441.8h-24.2c-2.3,0-4.1-1.4-4.4-3.5c-0.4-2.4,1.5-4.6,4.1-4.7c0.7,0,1.3,0,2,0h46.9c2.5,0,4.3,1.7,4.4,4
					c0.1,2.4-1.8,4.2-4.4,4.2H212.8z"/>
				<path d="M212.9,458.2h-24.3c-2.3,0-4-1.4-4.4-3.4c-0.4-2.5,1.4-4.7,4-4.8h49c2.5,0,4.4,1.8,4.4,4.1c0,2.3-1.9,4.1-4.4,4.1
					C229.1,458.2,221,458.2,212.9,458.2z"/>
				<path d="M213,466.4h24.3c2.4,0,4.2,1.6,4.4,3.8c0.2,2.3-1.6,4.3-4.1,4.4h-48.9c-1.6,0-2.9-0.6-3.8-1.9c-0.8-1.3-0.9-2.7-0.1-4.1
					c0.8-1.4,2.1-2.1,3.8-2.2c5.1,0,10.2,0,15.4,0H213z"/>
			</g>
		</g>
	</g>
	<g>
		<g>
			<g>
				<path class="st13" d="M104.5,83.7c-0.7,5.7-3.9,10.2-9.6,13.4c-5.1,2.8-11.4,4.3-19,4.3c-10.2,0-17.8-2.9-23-8.8
					c-3.8-4.4-5.7-9.8-5.7-16.2c0-4.9,1.1-9.2,3.4-12.8l11-2.3c-2.5,4.2-3.7,8.6-3.7,13.3c0,5.2,1.5,9.2,4.6,12
					c3.1,2.8,7.5,4.3,13.3,4.3c9.1,0,14.6-2.4,16.6-7.1h-8.8l5.8-11.2h15.4v11.2H104.5z M69.8,121.9c-1.8,0-3.3-0.6-4.4-1.7
					c-1.1-1.1-1.7-2.6-1.7-4.5c0-1.8,0.6-3.3,1.7-4.4c1.1-1.1,2.6-1.7,4.4-1.7c1.8,0,3.3,0.5,4.4,1.6c1.1,1.1,1.6,2.6,1.6,4.4
					C75.7,119.8,73.7,121.9,69.8,121.9z M83.9,121.9c-1.8,0-3.3-0.6-4.4-1.7c-1.1-1.1-1.7-2.6-1.7-4.6c0-4,2-6,6.1-6
					c1.8,0,3.3,0.5,4.4,1.6c1.1,1.1,1.6,2.6,1.6,4.4C89.9,119.8,87.9,121.9,83.9,121.9z"/>
				<path class="st13" d="M132.8,72.5h8.3v11.2h-9.4c-4.5,0-8.2-1.2-11.1-3.6c-2.9,2.4-6.7,3.6-11.1,3.6h-9.4V72.5h8.3
					c2.3,0,4-0.5,5-1.5c1-1,1.5-2.7,1.5-5.2V48.6l11.6-6.1v23.3c0,2.4,0.5,4.1,1.5,5.2C128.9,71.9,130.5,72.5,132.8,72.5z
					 M118.1,33.1c-1.8,0-3.3-0.6-4.4-1.7c-1.1-1.1-1.7-2.6-1.7-4.6c0-1.8,0.6-3.3,1.7-4.4c1.1-1.1,2.6-1.7,4.4-1.7
					c1.8,0,3.3,0.5,4.4,1.6c1.1,1.1,1.6,2.6,1.6,4.4C124.1,31,122.1,33.1,118.1,33.1z"/>
				<path class="st13" d="M195.6,72.5h7.7v11.2h-7.8c-4.8,0-8.7-0.5-11.6-1.6c-2.9-1.1-5.6-3-8.1-5.7c-7.7,4.9-16.5,7.3-26.5,7.3
					h-13.6V72.5h13.7c10.8,0,19.4-3.3,25.8-9.8c-4.2-7.4-9.2-11.1-15.2-11.1c-4.9,0-10.3,2.7-16.1,8.1V49.4c5.2-5.7,11-8.5,17.5-8.5
					c4.8,0,9.4,1.8,14,5.3c4.5,3.5,8.6,8.5,12,15.1v4.6c-1,1.3-2.3,2.8-3.9,4.4C185.9,71.7,189.9,72.5,195.6,72.5z"/>
				<path class="st13" d="M197.8,83.7V72.5h9.7c2.3,0,4-0.5,5-1.5c1-1,1.5-2.7,1.5-5.2V53.5l11.6-6.1v18.4c0,2.4,0.5,4.1,1.5,5.2
					c1,1,2.6,1.5,5,1.5h6.3c2.3,0,4-0.5,5-1.5c1-1,1.5-2.7,1.5-5.2V51.1l11.6-6.2v20.9c0,2.4,0.5,4.1,1.5,5.2c1,1,2.7,1.5,5,1.5h6.3
					c2.3,0,4-0.5,5-1.5c1-1,1.5-2.7,1.5-5.2V48.6l11.6-6.1v21.8c0,3,0.6,5.1,1.8,6.3c1.2,1.2,3.2,1.9,6,1.9h8.5v11.2h-9.1
					c-5.2,0-9.3-1.5-12.4-4.5c-2.8,2.9-6.5,4.4-11.1,4.5h-9.1c-4.5,0-8.2-1.4-11.1-4.1c-2.6,2.7-6.1,4-10.5,4.1H231
					c-4.5,0-8.2-1.4-11.1-4.1c-2.9,2.7-6.6,4.1-11.1,4.1H197.8z"/>
				<path class="st13" d="M312.7,58.1c0-5.6,1.7-9.9,5.2-13.1c3-2.7,6.9-4.1,11.6-4.1c6.1,0,10.8,2.3,14.2,6.8
					c2.9,3.8,4.3,8.6,4.3,14.6c0,6.9-1.8,12.3-5.4,16.3c-3.3,3.5-7.4,5.2-12.4,5.2c-4.9,0-8.9-1.1-12-3.3c-2.9,2.2-6.5,3.3-10.7,3.3
					h-9.4V72.5h8.3c2.3,0,4-0.5,5-1.5c1-1,1.5-2.7,1.5-5.2V58.1z M324.2,67.3c0,3.5,1.8,5.2,5.4,5.2c4.5,0,6.8-3.5,6.8-10.6
					c0-6.8-2.4-10.1-7.1-10.1c-3.4,0-5.2,2-5.2,6.1V67.3z"/>
				<path class="st13" d="M363.1,83.7V30l11.6-6.2v59.9H363.1z"/>
				<path class="st13" d="M81.3,137.4c-1,1.6-2.6,3.9-4.8,7c-4.6-2-8.7-3-12.3-3c-4.8,0-7.1,1.8-7.1,5.4c0,1.6,0.5,2.9,1.6,3.8
					c1.1,0.9,3.3,2.1,6.8,3.4c6.2,2.4,10.6,5.1,13.3,7.9c2.7,2.8,4.1,6.2,4.1,10.2c0,5.6-2.1,9.9-6.3,13c-3.4,2.5-7.7,3.7-12.8,3.7
					c-6,0-12.4-2.2-19.2-6.6l5-7c3.3,2.3,7.6,3.4,12.8,3.4c5.9,0,8.8-2.4,8.8-7.2c0-3.1-3.2-5.8-9.5-8c-10.2-3.5-15.4-9-15.4-16.6
					c0-4.6,1.7-8.3,5.2-11c3.2-2.6,7.5-3.9,12.8-3.9C70.4,131.8,76,133.7,81.3,137.4z"/>
				<path class="st13" d="M131.2,181.6c-4.8,4.8-10.3,7.2-16.7,7.2c-9.2,0-16.1-3.5-20.6-10.4c-3.3-5-4.9-10.8-4.9-17.5
					c0-8.7,2.2-15.8,6.7-21.1c4.4-5.3,10.5-8,18.4-8c5.5,0,11,2.3,16.5,7l-4.4,7.2c-4.1-3-7.9-4.5-11.2-4.5c-4.7,0-8.3,2-10.9,6
					c-2.2,3.4-3.3,7.9-3.3,13.4c0,4.9,1.3,9,3.9,12.5c2.8,3.6,6.6,5.5,11.2,5.5c3.1,0,6.8-1.4,11-4.1L131.2,181.6z"/>
				<path class="st13" d="M155,132.9h9.4l20,54.9h-11.4c-1-2.9-2.2-6.7-3.6-11.4H150c-0.8,2.6-2,6.4-3.7,11.4H135L155,132.9z
					 M159.8,147.7c-1.6,4.6-3.8,11-6.6,19.3h13C163.6,159,161.4,152.5,159.8,147.7z"/>
				<path class="st13" d="M202.9,151v36.8h-11.1v-54.9h9.4c9.2,12,18.3,24.7,27.3,37.9v-37.9h11.2v54.9h-9.6
					C224.7,181.3,215.6,169.1,202.9,151z"/>
				<path class="st13" d="M302.9,174.7c3.2-11.9,7.5-25.8,12.9-41.9h16.3v54.9h-11.3v-44.6c-2.7,11.7-7.1,26.6-13.2,44.6h-9.4
					c-6.5-19.8-10.8-34.5-13.1-44.1v44.1H274v-54.9h15.6C295,147.7,299.5,161.6,302.9,174.7z"/>
				<path class="st13" d="M344.5,132.9H380v9.1h-24.3v12.9H376v9.1h-20.3v14.7h25.4v9.1h-36.7V132.9z"/>
			</g>
			<g>
				<path class="st14" d="M104.5,83.7c-0.7,5.7-3.9,10.2-9.6,13.4c-5.1,2.8-11.4,4.3-19,4.3c-10.2,0-17.8-2.9-23-8.8
					c-3.8-4.4-5.7-9.8-5.7-16.2c0-4.9,1.1-9.2,3.4-12.8l11-2.3c-2.5,4.2-3.7,8.6-3.7,13.3c0,5.2,1.5,9.2,4.6,12
					c3.1,2.8,7.5,4.3,13.3,4.3c9.1,0,14.6-2.4,16.6-7.1h-8.8l5.8-11.2h15.4v11.2H104.5z M69.8,121.9c-1.8,0-3.3-0.6-4.4-1.7
					c-1.1-1.1-1.7-2.6-1.7-4.5c0-1.8,0.6-3.3,1.7-4.4c1.1-1.1,2.6-1.7,4.4-1.7c1.8,0,3.3,0.5,4.4,1.6c1.1,1.1,1.6,2.6,1.6,4.4
					C75.7,119.8,73.7,121.9,69.8,121.9z M83.9,121.9c-1.8,0-3.3-0.6-4.4-1.7c-1.1-1.1-1.7-2.6-1.7-4.6c0-4,2-6,6.1-6
					c1.8,0,3.3,0.5,4.4,1.6c1.1,1.1,1.6,2.6,1.6,4.4C89.9,119.8,87.9,121.9,83.9,121.9z"/>
				<path class="st14" d="M132.8,72.5h8.3v11.2h-9.4c-4.5,0-8.2-1.2-11.1-3.6c-2.9,2.4-6.7,3.6-11.1,3.6h-9.4V72.5h8.3
					c2.3,0,4-0.5,5-1.5c1-1,1.5-2.7,1.5-5.2V48.6l11.6-6.1v23.3c0,2.4,0.5,4.1,1.5,5.2C128.9,71.9,130.5,72.5,132.8,72.5z
					 M118.1,33.1c-1.8,0-3.3-0.6-4.4-1.7c-1.1-1.1-1.7-2.6-1.7-4.6c0-1.8,0.6-3.3,1.7-4.4c1.1-1.1,2.6-1.7,4.4-1.7
					c1.8,0,3.3,0.5,4.4,1.6c1.1,1.1,1.6,2.6,1.6,4.4C124.1,31,122.1,33.1,118.1,33.1z"/>
				<path class="st14" d="M195.6,72.5h7.7v11.2h-7.8c-4.8,0-8.7-0.5-11.6-1.6c-2.9-1.1-5.6-3-8.1-5.7c-7.7,4.9-16.5,7.3-26.5,7.3
					h-13.6V72.5h13.7c10.8,0,19.4-3.3,25.8-9.8c-4.2-7.4-9.2-11.1-15.2-11.1c-4.9,0-10.3,2.7-16.1,8.1V49.4c5.2-5.7,11-8.5,17.5-8.5
					c4.8,0,9.4,1.8,14,5.3c4.5,3.5,8.6,8.5,12,15.1v4.6c-1,1.3-2.3,2.8-3.9,4.4C185.9,71.7,189.9,72.5,195.6,72.5z"/>
				<path class="st14" d="M197.8,83.7V72.5h9.7c2.3,0,4-0.5,5-1.5c1-1,1.5-2.7,1.5-5.2V53.5l11.6-6.1v18.4c0,2.4,0.5,4.1,1.5,5.2
					c1,1,2.6,1.5,5,1.5h6.3c2.3,0,4-0.5,5-1.5c1-1,1.5-2.7,1.5-5.2V51.1l11.6-6.2v20.9c0,2.4,0.5,4.1,1.5,5.2c1,1,2.7,1.5,5,1.5h6.3
					c2.3,0,4-0.5,5-1.5c1-1,1.5-2.7,1.5-5.2V48.6l11.6-6.1v21.8c0,3,0.6,5.1,1.8,6.3c1.2,1.2,3.2,1.9,6,1.9h8.5v11.2h-9.1
					c-5.2,0-9.3-1.5-12.4-4.5c-2.8,2.9-6.5,4.4-11.1,4.5h-9.1c-4.5,0-8.2-1.4-11.1-4.1c-2.6,2.7-6.1,4-10.5,4.1H231
					c-4.5,0-8.2-1.4-11.1-4.1c-2.9,2.7-6.6,4.1-11.1,4.1H197.8z"/>
				<path class="st14" d="M312.7,58.1c0-5.6,1.7-9.9,5.2-13.1c3-2.7,6.9-4.1,11.6-4.1c6.1,0,10.8,2.3,14.2,6.8
					c2.9,3.8,4.3,8.6,4.3,14.6c0,6.9-1.8,12.3-5.4,16.3c-3.3,3.5-7.4,5.2-12.4,5.2c-4.9,0-8.9-1.1-12-3.3c-2.9,2.2-6.5,3.3-10.7,3.3
					h-9.4V72.5h8.3c2.3,0,4-0.5,5-1.5c1-1,1.5-2.7,1.5-5.2V58.1z M324.2,67.3c0,3.5,1.8,5.2,5.4,5.2c4.5,0,6.8-3.5,6.8-10.6
					c0-6.8-2.4-10.1-7.1-10.1c-3.4,0-5.2,2-5.2,6.1V67.3z"/>
				<path class="st14" d="M363.1,83.7V30l11.6-6.2v59.9H363.1z"/>
				<path class="st14" d="M81.3,137.4c-1,1.6-2.6,3.9-4.8,7c-4.6-2-8.7-3-12.3-3c-4.8,0-7.1,1.8-7.1,5.4c0,1.6,0.5,2.9,1.6,3.8
					c1.1,0.9,3.3,2.1,6.8,3.4c6.2,2.4,10.6,5.1,13.3,7.9c2.7,2.8,4.1,6.2,4.1,10.2c0,5.6-2.1,9.9-6.3,13c-3.4,2.5-7.7,3.7-12.8,3.7
					c-6,0-12.4-2.2-19.2-6.6l5-7c3.3,2.3,7.6,3.4,12.8,3.4c5.9,0,8.8-2.4,8.8-7.2c0-3.1-3.2-5.8-9.5-8c-10.2-3.5-15.4-9-15.4-16.6
					c0-4.6,1.7-8.3,5.2-11c3.2-2.6,7.5-3.9,12.8-3.9C70.4,131.8,76,133.7,81.3,137.4z"/>
				<path class="st14" d="M131.2,181.6c-4.8,4.8-10.3,7.2-16.7,7.2c-9.2,0-16.1-3.5-20.6-10.4c-3.3-5-4.9-10.8-4.9-17.5
					c0-8.7,2.2-15.8,6.7-21.1c4.4-5.3,10.5-8,18.4-8c5.5,0,11,2.3,16.5,7l-4.4,7.2c-4.1-3-7.9-4.5-11.2-4.5c-4.7,0-8.3,2-10.9,6
					c-2.2,3.4-3.3,7.9-3.3,13.4c0,4.9,1.3,9,3.9,12.5c2.8,3.6,6.6,5.5,11.2,5.5c3.1,0,6.8-1.4,11-4.1L131.2,181.6z"/>
				<path class="st14" d="M155,132.9h9.4l20,54.9h-11.4c-1-2.9-2.2-6.7-3.6-11.4H150c-0.8,2.6-2,6.4-3.7,11.4H135L155,132.9z
					 M159.8,147.7c-1.6,4.6-3.8,11-6.6,19.3h13C163.6,159,161.4,152.5,159.8,147.7z"/>
				<path class="st14" d="M202.9,151v36.8h-11.1v-54.9h9.4c9.2,12,18.3,24.7,27.3,37.9v-37.9h11.2v54.9h-9.6
					C224.7,181.3,215.6,169.1,202.9,151z"/>
				<path class="st14" d="M302.9,174.7c3.2-11.9,7.5-25.8,12.9-41.9h16.3v54.9h-11.3v-44.6c-2.7,11.7-7.1,26.6-13.2,44.6h-9.4
					c-6.5-19.8-10.8-34.5-13.1-44.1v44.1H274v-54.9h15.6C295,147.7,299.5,161.6,302.9,174.7z"/>
				<path class="st14" d="M344.5,132.9H380v9.1h-24.3v12.9H376v9.1h-20.3v14.7h25.4v9.1h-36.7V132.9z"/>
			</g>
		</g>
		<g>
			<path class="st0" d="M424.9,0.4v675.1H0.4V0.4H424.9 M425.2,0.2H0.2v675.6h425V0.2L425.2,0.2z"/>
		</g>
	</g>
</g>
</svg>
